<?xml version="1.0" encoding="UTF-8" standalone="no"?>
<svg
   width="50"
   height="200"
   version="1.1"
   id="svg64"
   sodipodi:docname="alldesktops.svg"
   inkscape:version="1.4 (e7c3feb100, 2024-10-09)"
   xmlns:inkscape="http://www.inkscape.org/namespaces/inkscape"
   xmlns:sodipodi="http://sodipodi.sourceforge.net/DTD/sodipodi-0.dtd"
   xmlns="http://www.w3.org/2000/svg"
   xmlns:svg="http://www.w3.org/2000/svg"
   xmlns:rdf="http://www.w3.org/1999/02/22-rdf-syntax-ns#"
   xmlns:cc="http://creativecommons.org/ns#"
   xmlns:dc="http://purl.org/dc/elements/1.1/">
  <metadata
     id="metadata70">
    <rdf:RDF>
      <cc:Work
         rdf:about="">
        <dc:format>image/svg+xml</dc:format>
        <dc:type
           rdf:resource="http://purl.org/dc/dcmitype/StillImage" />
        <dc:title>Vetro</dc:title>
      </cc:Work>
    </rdf:RDF>
  </metadata>
  <defs
     id="defs68" />
  <sodipodi:namedview
     pagecolor="#000000"
     bordercolor="#ffffff"
     borderopacity="1"
     objecttolerance="10"
     gridtolerance="10"
     guidetolerance="10"
     inkscape:pageopacity="0"
     inkscape:pageshadow="2"
     inkscape:window-width="2048"
     inkscape:window-height="1122"
     id="namedview66"
     showgrid="true"
     inkscape:zoom="5.2444445"
     inkscape:cx="37.754237"
     inkscape:cy="54.34322"
     inkscape:window-x="0"
     inkscape:window-y="0"
     inkscape:window-maximized="1"
     inkscape:current-layer="svg64"
     inkscape:showpageshadow="2"
     inkscape:pagecheckerboard="0"
     inkscape:deskcolor="#303030"
     showborder="false">
    <inkscape:grid
       type="xygrid"
       id="grid47"
       originx="0"
       originy="0"
       spacingy="1"
       spacingx="1"
       units="px" />
  </sodipodi:namedview>
  <title
     id="title2">Vetro</title>
  <g
     id="pressed-center"
     transform="translate(49,95)">
    <rect
       ry="0"
       y="65"
       x="-49"
       height="30"
       width="46"
       id="rect75"
       style="opacity:0.25;fill:#b3b3b3;fill-opacity:1;stroke:none;stroke-width:0;stroke-linecap:round;stroke-linejoin:round;stroke-miterlimit:4;stroke-dasharray:none;stroke-opacity:1;paint-order:stroke fill markers" />
    <path
       id="path16"
       style="fill:#ffffff;fill-opacity:1;stroke-width:0"
       d="m -35,75 v 10 h 3 v -1 h -2 v -8 h 2 v -1 z m 4,0 v 1 9 h 10 V 75 Z m 11,0 v 1 h 2 v 8 h -2 v 1 h 3 V 75 Z m -10,1 h 8 v 8 h -8 z"
       sodipodi:nodetypes="ccccccccccccccccccccccccccccc" />
  </g>
  <g
     id="hover-center"
     transform="translate(49,87)">
    <rect
       style="display:inline;opacity:0.1;fill:#ffffff;fill-opacity:1;stroke:none;stroke-width:1.77603;stroke-linecap:round;stroke-linejoin:round;stroke-miterlimit:4;stroke-dasharray:none;stroke-opacity:1;paint-order:stroke fill markers"
       id="rect65"
       width="46"
       height="30"
       x="-49"
       y="33"
       ry="0" />
    <path
       id="path15"
       style="fill:#ffffff;fill-opacity:1;stroke-width:0"
       d="m -35,43 v 10 h 3 v -1 h -2 v -8 h 2 v -1 z m 4,0 v 1 9 h 10 V 43 Z m 11,0 v 1 h 2 v 8 h -2 v 1 h 3 V 43 Z m -10,1 h 8 v 8 h -8 z"
       sodipodi:nodetypes="ccccccccccccccccccccccccccccc" />
  </g>
  <g
     id="active-center"
     transform="translate(49,79)">
    <rect
       ry="0"
       y="1"
       x="-49"
       height="30"
       width="46"
       id="rect57"
       style="opacity:1;fill:none;fill-opacity:1;stroke:none;stroke-width:1.77603;stroke-linecap:round;stroke-linejoin:round;stroke-miterlimit:4;stroke-dasharray:none;stroke-opacity:1;paint-order:stroke fill markers" />
    <path
       id="path13"
       style="opacity:1;fill:#ffffff;fill-opacity:1;stroke-width:0"
       d="m -35,11 v 10 h 3 v -1 h -2 v -8 h 2 v -1 z m 4,0 v 1 9 h 10 V 11 Z m 11,0 v 1 h 2 v 8 h -2 v 1 h 3 V 11 Z m -10,1 h 8 v 8 h -8 z"
       sodipodi:nodetypes="ccccccccccccccccccccccccccccc" />
  </g>
  <g
     id="deactivated-center"
     transform="translate(49,-57)"
     style="opacity:0.35">
    <rect
       style="opacity:1;fill:none;fill-opacity:1;stroke:none;stroke-width:0;stroke-linecap:round;stroke-linejoin:round;stroke-miterlimit:4;stroke-dasharray:none;stroke-opacity:1;paint-order:stroke fill markers"
       id="rect85"
       width="46"
       height="30"
       x="-49"
       y="97"
       ry="0" />
    <path
       id="path17"
       style="fill:#ffffff;fill-opacity:1;stroke-width:0"
       d="m -35,107 v 10 h 3 v -1 h -2 v -8 h 2 v -1 z m 4,0 v 1 9 h 10 v -10 z m 11,0 v 1 h 2 v 8 h -2 v 1 h 3 v -10 z m -10,1 h 8 v 8 h -8 z"
       sodipodi:nodetypes="ccccccccccccccccccccccccccccc" />
  </g>
  <g
     id="inactive-center"
     transform="translate(49,-97)"
     style="opacity:0.35">
    <rect
       style="opacity:1;fill:none;fill-opacity:1;stroke:none;stroke-width:0;stroke-linecap:round;stroke-linejoin:round;stroke-miterlimit:4;stroke-dasharray:none;stroke-opacity:1;paint-order:stroke fill markers"
       id="rect85-6"
       width="46"
       height="30"
       x="-49"
       y="97"
       ry="0" />
    <path
       id="path18"
       style="fill:#ffffff;fill-opacity:1;stroke-width:0"
       d="m -35,107 v 10 h 3 v -1 h -2 v -8 h 2 v -1 z m 4,0 v 1 9 h 10 v -10 z m 11,0 v 1 h 2 v 8 h -2 v 1 h 3 v -10 z m -10,1 h 8 v 8 h -8 z"
       sodipodi:nodetypes="ccccccccccccccccccccccccccccc" />
  </g>
</svg>
