<?xml version="1.0" encoding="UTF-8" standalone="no"?>
<svg
   id="svg4306"
   width="50"
   height="200"
   version="1.1"
   style="enable-background:new"
   sodipodi:docname="close.svg"
   inkscape:version="1.4 (e7c3feb100, 2024-10-09)"
   xmlns:inkscape="http://www.inkscape.org/namespaces/inkscape"
   xmlns:sodipodi="http://sodipodi.sourceforge.net/DTD/sodipodi-0.dtd"
   xmlns="http://www.w3.org/2000/svg"
   xmlns:svg="http://www.w3.org/2000/svg"
   xmlns:rdf="http://www.w3.org/1999/02/22-rdf-syntax-ns#"
   xmlns:cc="http://creativecommons.org/ns#"
   xmlns:dc="http://purl.org/dc/elements/1.1/">
  <metadata
     id="metadata31">
    <rdf:RDF>
      <cc:Work
         rdf:about="">
        <dc:format>image/svg+xml</dc:format>
        <dc:type
           rdf:resource="http://purl.org/dc/dcmitype/StillImage" />
      </cc:Work>
    </rdf:RDF>
  </metadata>
  <defs
     id="defs29" />
  <sodipodi:namedview
     pagecolor="#000000"
     bordercolor="#ffffff"
     borderopacity="1"
     objecttolerance="10"
     gridtolerance="10"
     guidetolerance="10"
     inkscape:pageopacity="0"
     inkscape:pageshadow="2"
     inkscape:window-width="2048"
     inkscape:window-height="1122"
     id="namedview27"
     showgrid="false"
     inkscape:zoom="5.3636365"
     inkscape:cx="21.440677"
     inkscape:cy="61.338981"
     inkscape:window-x="0"
     inkscape:window-y="0"
     inkscape:window-maximized="1"
     inkscape:current-layer="svg4306"
     inkscape:snap-bbox="true"
     inkscape:bbox-nodes="true"
     inkscape:snap-nodes="false"
     inkscape:showpageshadow="2"
     inkscape:pagecheckerboard="0"
     inkscape:deskcolor="#303030"
     showborder="false">
    <inkscape:grid
       type="xygrid"
       id="grid892"
       originx="0"
       originy="0"
       spacingy="1"
       spacingx="1"
       units="px" />
  </sodipodi:namedview>
  <g
     style="opacity:0.35"
     id="inactive-center"
     transform="matrix(3.7795,0,0,3.7795,-164.99785,-493.51423)">
    <rect
       x="43.655998"
       y="141.16"
       width="12.170922"
       height="7.9375"
       ry="3.7990001e-06"
       style="opacity:0;stroke-width:0.442489;paint-order:stroke fill markers"
       id="rect956" />
    <path
       inkscape:connector-curvature="0"
       d="m 48.512309,143.71254 -0.18707,0.18706 1.2294,1.2294 -1.2294,1.2289 0.18707,0.18707 1.2294,-1.2289 1.2289,1.2289 0.18707,-0.18707 -1.2289,-1.2289 1.2289,-1.2294 -0.18707,-0.18706 -1.2289,1.2294 z"
       style="opacity:1;fill:#ffffff;fill-opacity:1;paint-order:stroke fill markers"
       id="path958" />
  </g>
  <g
     id="active-center"
     transform="matrix(3.7795,0,0,3.7795,-164.99785,-453.51444)"
     style="opacity:1">
    <rect
       x="43.655998"
       y="141.16"
       width="12.170922"
       height="7.9375"
       ry="3.7990001e-06"
       style="opacity:0;stroke-width:0.442489;paint-order:stroke fill markers"
       id="rect976" />
    <path
       inkscape:connector-curvature="0"
       d="m 48.512309,143.71254 -0.18707,0.18706 1.2294,1.2294 -1.2294,1.2289 0.18707,0.18707 1.2294,-1.2289 1.2289,1.2289 0.18707,-0.18707 -1.2289,-1.2289 1.2289,-1.2294 -0.18707,-0.18706 -1.2289,1.2294 z"
       style="opacity:1;fill:#ffffff;fill-opacity:1;paint-order:stroke fill markers"
       id="path978" />
  </g>
  <g
     id="hover-center"
     transform="matrix(3.7795,0,0,3.7795,-164.99785,-413.51423)">
    <rect
       x="43.655998"
       y="141.16"
       width="12.170922"
       height="7.9375"
       ry="3.7990001e-06"
       style="fill:#e81022;fill-opacity:1;stroke-width:1.10023"
       id="rect996" />
    <path
       inkscape:connector-curvature="0"
       d="m 48.512309,143.71254 -0.18707,0.18706 1.2294,1.2294 -1.2294,1.2289 0.18707,0.18707 1.2294,-1.2289 1.2289,1.2289 0.18707,-0.18707 -1.2289,-1.2289 1.2289,-1.2294 -0.18707,-0.18706 -1.2289,1.2294 z"
       style="fill:#ffffff;fill-opacity:1;paint-order:stroke fill markers"
       id="path998" />
  </g>
  <g
     id="pressed-center"
     transform="matrix(3.7795,0,0,3.7795,-164.49784,-373.51423)">
    <rect
       x="43.523705"
       y="141.16"
       width="12.170922"
       height="7.9375"
       ry="3.7990001e-06"
       style="fill:#8a0913;fill-opacity:1;stroke-width:1.10023"
       id="rect1016" />
    <path
       inkscape:connector-curvature="0"
       d="m 48.380016,143.71254 -0.18707,0.18706 1.2294,1.2294 -1.2294,1.2289 0.18707,0.18707 1.2294,-1.2289 1.2289,1.2289 0.18707,-0.18707 -1.2289,-1.2289 1.2289,-1.2294 -0.18707,-0.18706 -1.2289,1.2294 z"
       style="fill:#ffffff;fill-opacity:1;paint-order:stroke fill markers"
       id="path1018" />
  </g>
  <g
     transform="matrix(3.7795,0,0,3.7795,-164.99785,-533.51423)"
     id="deactivated-center"
     style="opacity:0.35">
    <rect
       id="rect880"
       style="opacity:0;stroke-width:0.442489;paint-order:stroke fill markers"
       ry="3.7990001e-06"
       height="7.9375"
       width="12.170922"
       y="141.16"
       x="43.655998" />
    <path
       id="path882"
       style="opacity:1;fill:#ffffff;fill-opacity:1;paint-order:stroke fill markers"
       d="m 48.512309,143.71254 -0.18707,0.18706 1.2294,1.2294 -1.2294,1.2289 0.18707,0.18707 1.2294,-1.2289 1.2289,1.2289 0.18707,-0.18707 -1.2289,-1.2289 1.2289,-1.2294 -0.18707,-0.18706 -1.2289,1.2294 z"
       inkscape:connector-curvature="0" />
  </g>
</svg>
